<?xml version="1.0" encoding="UTF-8" standalone="no"?>
<!-- Uploaded to: SVG Repo, www.svgrepo.com, Transformed by: SVG Repo Mixer Tools -->

<svg
   fill="#1c71d8"
   width="2400"
   height="2399.988"
   viewBox="0 0 41.999998 41.999788"
   role="img"
   focusable="false"
   aria-hidden="true"
   version="1.1"
   id="svg1"
   sodipodi:docname="arch-os.svg"
   inkscape:version="1.3.2 (091e20ef0f, 2023-11-25, custom)"
   xmlns:inkscape="http://www.inkscape.org/namespaces/inkscape"
   xmlns:sodipodi="http://sodipodi.sourceforge.net/DTD/sodipodi-0.dtd"
   xmlns="http://www.w3.org/2000/svg"
   xmlns:svg="http://www.w3.org/2000/svg">
  <defs
     id="defs1" />
  <sodipodi:namedview
     id="namedview1"
     pagecolor="#ffffff"
     bordercolor="#000000"
     borderopacity="0.25"
     inkscape:showpageshadow="2"
     inkscape:pageopacity="0.0"
     inkscape:pagecheckerboard="0"
     inkscape:deskcolor="#d1d1d1"
     inkscape:zoom="0.20623861"
     inkscape:cx="259.40827"
     inkscape:cy="1226.7344"
     inkscape:window-width="1876"
     inkscape:window-height="1006"
     inkscape:window-x="0"
     inkscape:window-y="0"
     inkscape:window-maximized="1"
     inkscape:current-layer="svg1" />
  <g
     id="SVGRepo_bgCarrier"
     stroke-width="0"
     transform="translate(-0.999945,-0.999975)" />
  <g
     id="SVGRepo_tracerCarrier"
     stroke-linecap="round"
     stroke-linejoin="round"
     transform="translate(-0.999945,-0.999975)" />
  <g
     id="SVGRepo_iconCarrier"
     transform="matrix(3.4814057,0,0,3.4814057,-3.4812141,-3.4813187)">
    <path
       d="m 6.999945,1.000025 c -0.53416,1.30962 -0.85671,2.16741 -1.45143,3.43809 0.36464,0.38652 0.81219,0.8345 1.53905,1.34286 -0.78145,-0.32156 -1.31403,-0.64213 -1.71238,-0.97714 -0.76113,1.5882 -1.95535,3.84813 -4.37524,8.19619 1.90161,-1.09784 3.37665,-1.77397 4.75048,-2.03238 -0.0589,-0.25367 -0.0918,-0.52896 -0.0895,-0.81524 l 0.002,-0.0591 c 0.0302,-1.21853 0.66434,-2.15695 1.41524,-2.09333 0.75089,0.0636 1.33494,1.10528 1.30476,2.32381 -0.006,0.22916 -0.031,0.44885 -0.0762,0.65333 1.3586,0.26611 2.81794,0.94016 4.69333,2.02286 -0.36995,-0.68111 -0.7018,-1.29335 -1.01714,-1.8781 -0.49672,-0.38499 -1.01365,-0.88613 -2.07048,-1.42857 0.72641,0.18875 1.24793,0.40612 1.65333,0.64953 -3.20619,-5.96938 -3.46623,-6.7627 -4.56571,-9.34286 z"
       id="path1" />
  </g>
</svg>
