<?xml version="1.0" encoding="UTF-8" standalone="no"?>
<!-- Uploaded to: SVG Repo, www.svgrepo.com, Generator: SVG Repo Mixer Tools -->

<svg
   fill="#000000"
   version="1.1"
   id="Capa_1"
   width="800px"
   height="800px"
   viewBox="0 0 390.412 390.412"
   xml:space="preserve"
   sodipodi:docname="cup-of-coffee-cold.svg"
   inkscape:version="1.3.2 (091e20ef0f, 2023-11-25, custom)"
   xmlns:inkscape="http://www.inkscape.org/namespaces/inkscape"
   xmlns:sodipodi="http://sodipodi.sourceforge.net/DTD/sodipodi-0.dtd"
   xmlns="http://www.w3.org/2000/svg"
   xmlns:svg="http://www.w3.org/2000/svg"><defs
   id="defs3" /><sodipodi:namedview
   id="namedview3"
   pagecolor="#ffffff"
   bordercolor="#000000"
   borderopacity="0.25"
   inkscape:showpageshadow="2"
   inkscape:pageopacity="0.0"
   inkscape:pagecheckerboard="0"
   inkscape:deskcolor="#d1d1d1"
   inkscape:zoom="1.0925"
   inkscape:cx="399.54233"
   inkscape:cy="237.98627"
   inkscape:window-width="1876"
   inkscape:window-height="1006"
   inkscape:window-x="0"
   inkscape:window-y="0"
   inkscape:window-maximized="1"
   inkscape:current-layer="Capa_1" />
<g
   id="g3">
	<g
   id="g2">
		<path
   d="M323.433,211.572c-9.891-12.094-26.1-18.699-46.961-19.219c-0.575-4.976-4.797-8.841-9.928-8.841H66.452    c-5.523,0-10,4.478-10,10v116c0,23.045,12.86,43.685,33.561,53.865v0.001c-1.004,2.394-1.513,4.928-1.513,7.535    c0,10.752,8.747,19.499,19.499,19.499h116.999c10.752,0,19.499-8.747,19.499-19.499c0-2.607-0.509-5.144-1.514-7.536    c17.71-8.71,29.673-25.076,32.763-44.052c17.111-3.789,31.613-13.604,42.518-28.944c10.125-14.244,13.489-28.244,13.841-29.795    l0.07-0.333C336.264,240.041,333.322,223.662,323.433,211.572z M302.819,254.061c-0.256,1-2.717,10.09-9.008,18.94    c-4.866,6.847-10.583,11.714-17.267,14.666v-65.313c7.533,0.276,18.461,1.847,23.667,8.211    C304.099,235.316,304.975,243.223,302.819,254.061z"
   id="path1" />
		
	</g>
</g>
<path
   style="fill:#ffffff;fill-opacity:0;stroke:#000000;stroke-width:0.915332;stroke-opacity:0"
   d="m 339.13233,357.43936 c -1.8246,-2.19851 -0.71731,-11.33646 2.06162,-17.01363 3.40335,-6.95279 10.66546,-15.42606 21.80102,-25.43699 13.62843,-12.25199 26.94288,-25.45212 29.73171,-29.47641 3.18467,-4.59548 3.92278,-9.95597 1.643,-11.93239 -4.96169,-4.30151 -20.10319,-4.77647 -41.03267,-1.28714 -27.33702,4.55758 -42.32722,3.84308 -56.04474,-2.67134 -18.52861,-8.7992 -28.55319,-29.43551 -23.57794,-48.53683 2.22518,-8.54301 5.73755,-14.1088 14.17221,-22.45763 19.35625,-19.15926 46.18399,-27.81169 136.36975,-43.98167 11.83067,-2.1212 21.7987,-4.11139 22.15119,-4.42265 0.35248,-0.31127 -25.2713,-0.42028 -56.94174,-0.24227 -106.49369,0.59857 -151.44085,-2.90422 -187.01335,-14.5742 -39.57219,-12.98214 -56.84358,-34.28938 -50.58764,-62.408599 5.2241,-23.481369 23.75462,-44.721472 49.22441,-56.422146 24.23117,-11.1316582 50.71495,-15.78128395 89.75089,-15.75712019 29.408,0.0182039 59.05125,3.52557139 86.24346,10.20426119 17.00306,4.176132 17.72422,4.429094 18.36281,6.441113 1.34435,4.23567 0.60564,4.321771 -32.76965,3.8195 -35.13288,-0.52872 -54.90312,0.449226 -78.92381,3.90401 -33.29228,4.788274 -59.32419,13.294221 -74.10603,24.214204 -15.09112,11.148469 -23.9074,28.757887 -18.21501,36.382222 4.07648,5.460006 19.20503,10.571155 39.68946,13.409004 23.96902,3.320591 35.65645,3.729461 94.27918,3.298241 134.91745,-0.99245 145.1208,-0.70927 166.28981,4.61501 13.34861,3.35736 20.98745,7.09015 28.07264,13.718 12.18653,11.3999 15.35532,26.51634 8.42532,40.19205 -3.2413,6.3964 -6.95165,10.34716 -14.31441,15.24192 -16.4622,10.94404 -39.30061,16.60475 -105.17817,26.06932 -42.39221,6.09047 -60.02678,9.72044 -77.41659,15.9358 -9.19294,3.28569 -16.93084,7.67812 -19.17803,10.88645 -1.95196,2.78681 -1.65168,6.40369 0.71362,8.59542 3.75731,3.48161 8.97113,4.12012 32.72311,4.00745 26.03923,-0.12352 38.54356,0.91981 48.42121,4.04016 20.61133,6.51111 30.81406,24.10539 23.20065,40.00877 -5.00986,10.46492 -13.70162,18.89083 -35.15704,34.08173 -26.59725,18.83144 -36.46482,28.02777 -36.46482,33.98432 0,2.27334 -2.19932,4.94277 -4.0723,4.94277 -0.65754,0 -1.70746,-0.61683 -2.33313,-1.37071 z"
   id="path3"
   transform="scale(0.488015)" /><path
   style="fill:#ffffff;fill-opacity:0;stroke:#000000;stroke-width:0.915332;stroke-opacity:0"
   d="m 339.13233,357.43936 c -1.8246,-2.19851 -0.71731,-11.33646 2.06162,-17.01363 3.40335,-6.95279 10.66546,-15.42606 21.80102,-25.43699 13.62843,-12.25199 26.94288,-25.45212 29.73171,-29.47641 3.18467,-4.59548 3.92278,-9.95597 1.643,-11.93239 -4.96169,-4.30151 -20.10319,-4.77647 -41.03267,-1.28714 -27.33702,4.55758 -42.32722,3.84308 -56.04474,-2.67134 -18.52861,-8.7992 -28.55319,-29.43551 -23.57794,-48.53683 2.22518,-8.54301 5.73755,-14.1088 14.17221,-22.45763 19.35625,-19.15926 46.18399,-27.81169 136.36975,-43.98167 11.83067,-2.1212 21.7987,-4.11139 22.15119,-4.42265 0.35248,-0.31127 -25.2713,-0.42028 -56.94174,-0.24227 -106.49369,0.59857 -151.44085,-2.90422 -187.01335,-14.5742 -39.57219,-12.98214 -56.84358,-34.28938 -50.58764,-62.408599 5.2241,-23.481369 23.75462,-44.721472 49.22441,-56.422146 24.23117,-11.1316582 50.71495,-15.78128395 89.75089,-15.75712019 29.408,0.0182039 59.05125,3.52557139 86.24346,10.20426119 17.00306,4.176132 17.72422,4.429094 18.36281,6.441113 1.34435,4.23567 0.60564,4.321771 -32.76965,3.8195 -35.13288,-0.52872 -54.90312,0.449226 -78.92381,3.90401 -33.29228,4.788274 -59.32419,13.294221 -74.10603,24.214204 -15.09112,11.148469 -23.9074,28.757887 -18.21501,36.382222 4.07648,5.460006 19.20503,10.571155 39.68946,13.409004 23.96902,3.320591 35.65645,3.729461 94.27918,3.298241 134.91745,-0.99245 145.1208,-0.70927 166.28981,4.61501 13.34861,3.35736 20.98745,7.09015 28.07264,13.718 12.18653,11.3999 15.35532,26.51634 8.42532,40.19205 -3.2413,6.3964 -6.95165,10.34716 -14.31441,15.24192 -16.4622,10.94404 -39.30061,16.60475 -105.17817,26.06932 -42.39221,6.09047 -60.02678,9.72044 -77.41659,15.9358 -9.19294,3.28569 -16.93084,7.67812 -19.17803,10.88645 -1.95196,2.78681 -1.65168,6.40369 0.71362,8.59542 3.75731,3.48161 8.97113,4.12012 32.72311,4.00745 26.03923,-0.12352 38.54356,0.91981 48.42121,4.04016 20.61133,6.51111 30.81406,24.10539 23.20065,40.00877 -5.00986,10.46492 -13.70162,18.89083 -35.15704,34.08173 -26.59725,18.83144 -36.46482,28.02777 -36.46482,33.98432 0,2.27334 -2.19932,4.94277 -4.0723,4.94277 -0.65754,0 -1.70746,-0.61683 -2.33313,-1.37071 z"
   id="path4"
   transform="scale(0.488015)" /><path
   style="fill:#ffffff;fill-opacity:0;stroke:#000000;stroke-width:0.915332;stroke-opacity:0"
   d="m 339.13233,357.43936 c -1.8246,-2.19851 -0.71731,-11.33646 2.06162,-17.01363 3.40335,-6.95279 10.66546,-15.42606 21.80102,-25.43699 13.62843,-12.25199 26.94288,-25.45212 29.73171,-29.47641 3.18467,-4.59548 3.92278,-9.95597 1.643,-11.93239 -4.96169,-4.30151 -20.10319,-4.77647 -41.03267,-1.28714 -27.33702,4.55758 -42.32722,3.84308 -56.04474,-2.67134 -18.52861,-8.7992 -28.55319,-29.43551 -23.57794,-48.53683 2.22518,-8.54301 5.73755,-14.1088 14.17221,-22.45763 19.35625,-19.15926 46.18399,-27.81169 136.36975,-43.98167 11.83067,-2.1212 21.7987,-4.11139 22.15119,-4.42265 0.35248,-0.31127 -25.2713,-0.42028 -56.94174,-0.24227 -106.49369,0.59857 -151.44085,-2.90422 -187.01335,-14.5742 -39.57219,-12.98214 -56.84358,-34.28938 -50.58764,-62.408599 5.2241,-23.481369 23.75462,-44.721472 49.22441,-56.422146 24.23117,-11.1316582 50.71495,-15.78128395 89.75089,-15.75712019 29.408,0.0182039 59.05125,3.52557139 86.24346,10.20426119 17.00306,4.176132 17.72422,4.429094 18.36281,6.441113 1.34435,4.23567 0.60564,4.321771 -32.76965,3.8195 -35.13288,-0.52872 -54.90312,0.449226 -78.92381,3.90401 -33.29228,4.788274 -59.32419,13.294221 -74.10603,24.214204 -15.09112,11.148469 -23.9074,28.757887 -18.21501,36.382222 4.07648,5.460006 19.20503,10.571155 39.68946,13.409004 23.96902,3.320591 35.65645,3.729461 94.27918,3.298241 134.91745,-0.99245 145.1208,-0.70927 166.28981,4.61501 13.34861,3.35736 20.98745,7.09015 28.07264,13.718 12.18653,11.3999 15.35532,26.51634 8.42532,40.19205 -3.2413,6.3964 -6.95165,10.34716 -14.31441,15.24192 -16.4622,10.94404 -39.30061,16.60475 -105.17817,26.06932 -42.39221,6.09047 -60.02678,9.72044 -77.41659,15.9358 -9.19294,3.28569 -16.93084,7.67812 -19.17803,10.88645 -1.95196,2.78681 -1.65168,6.40369 0.71362,8.59542 3.75731,3.48161 8.97113,4.12012 32.72311,4.00745 26.03923,-0.12352 38.54356,0.91981 48.42121,4.04016 20.61133,6.51111 30.81406,24.10539 23.20065,40.00877 -5.00986,10.46492 -13.70162,18.89083 -35.15704,34.08173 -26.59725,18.83144 -36.46482,28.02777 -36.46482,33.98432 0,2.27334 -2.19932,4.94277 -4.0723,4.94277 -0.65754,0 -1.70746,-0.61683 -2.33313,-1.37071 z"
   id="path5"
   transform="scale(0.488015)" /></svg>
